<svg width="11" height="14" viewBox="0 0 11 14" fill="none" xmlns="http://www.w3.org/2000/svg">
<path d="M5.33333 6.75001C5.7 6.75001 6.014 6.61934 6.27533 6.35801C6.53667 6.09668 6.66711 5.7829 6.66667 5.41668C6.66667 5.05001 6.536 4.73601 6.27467 4.47468C6.01333 4.21334 5.69955 4.0829 5.33333 4.08334C4.96667 4.08334 4.65267 4.21401 4.39133 4.47534C4.13 4.73668 3.99955 5.05045 4 5.41668C4 5.78334 4.13067 6.09734 4.392 6.35868C4.65333 6.62001 4.96711 6.75045 5.33333 6.75001ZM5.33333 13.1667C5.24444 13.1667 5.15556 13.15 5.06667 13.1167C4.97778 13.0833 4.9 13.0389 4.83333 12.9833C3.21111 11.55 2 10.2193 1.2 8.99134C0.4 7.76334 0 6.61623 0 5.55001C0 3.88334 0.536222 2.55557 1.60867 1.56668C2.68111 0.577788 3.92267 0.0833435 5.33333 0.0833435C6.74444 0.0833435 7.98622 0.577788 9.05867 1.56668C10.1311 2.55557 10.6671 3.88334 10.6667 5.55001C10.6667 6.61668 10.2667 7.76401 9.46667 8.99201C8.66667 10.22 7.45555 11.5505 5.83333 12.9833C5.76667 13.0389 5.68889 13.0833 5.6 13.1167C5.51111 13.15 5.42222 13.1667 5.33333 13.1667Z" fill="white"/>
</svg>
