<svg width="16" height="16" viewBox="0 0 16 16" fill="none" xmlns="http://www.w3.org/2000/svg">
<path d="M8 16C7.793 16 7.61936 15.9301 7.47909 15.7903C7.33881 15.6505 7.26892 15.4769 7.26941 15.2694V14.5388C5.74734 14.3683 4.44128 13.7383 3.35123 12.6488C2.26119 11.5592 1.63117 10.2531 1.46119 8.73059H0.730594C0.523592 8.73059 0.350198 8.66045 0.210411 8.52018C0.0706241 8.37991 0.000487062 8.20651 0 8C0 7.793 0.0701371 7.61936 0.210411 7.47909C0.350685 7.33881 0.524079 7.26892 0.730594 7.26941H1.46119C1.63166 5.74734 2.26192 4.44128 3.35196 3.35123C4.44201 2.26119 5.74782 1.63117 7.26941 1.46119V0.730594C7.26941 0.523592 7.33954 0.350198 7.47982 0.210411C7.62009 0.0706241 7.79348 0.000487062 8 0C8.207 0 8.38064 0.0701371 8.52091 0.210411C8.66119 0.350685 8.73108 0.524079 8.73059 0.730594V1.46119C10.2527 1.63166 11.5587 2.26192 12.6488 3.35196C13.7388 4.44201 14.3688 5.74782 14.5388 7.26941H15.2694C15.4764 7.26941 15.65 7.33954 15.7903 7.47982C15.9306 7.62009 16.0005 7.79348 16 8C16 8.207 15.9301 8.38064 15.7903 8.52091C15.6505 8.66119 15.4769 8.73108 15.2694 8.73059H14.5388C14.3683 10.2527 13.7383 11.5587 12.6488 12.6488C11.5592 13.7388 10.2531 14.3688 8.73059 14.5388V15.2694C8.73059 15.4764 8.66045 15.65 8.52018 15.7903C8.37991 15.9306 8.20651 16.0005 8 16ZM8 13.1142C9.41248 13.1142 10.618 12.6149 11.6164 11.6164C12.6149 10.618 13.1142 9.41248 13.1142 8C13.1142 6.58752 12.6149 5.38204 11.6164 4.38356C10.618 3.38508 9.41248 2.88584 8 2.88584C6.58752 2.88584 5.38204 3.38508 4.38356 4.38356C3.38508 5.38204 2.88584 6.58752 2.88584 8C2.88584 9.41248 3.38508 10.618 4.38356 11.6164C5.38204 12.6149 6.58752 13.1142 8 13.1142ZM8 10.9224C7.19635 10.9224 6.50837 10.6362 5.93607 10.0639C5.36377 9.49163 5.07762 8.80365 5.07762 8C5.07762 7.19635 5.36377 6.50837 5.93607 5.93607C6.50837 5.36377 7.19635 5.07762 8 5.07762C8.80365 5.07762 9.49163 5.36377 10.0639 5.93607C10.6362 6.50837 10.9224 7.19635 10.9224 8C10.9224 8.80365 10.6362 9.49163 10.0639 10.0639C9.49163 10.6362 8.80365 10.9224 8 10.9224Z" fill="white"/>
</svg>
