<svg width="14" height="14" viewBox="0 0 14 14" fill="none" xmlns="http://www.w3.org/2000/svg">
<path fill-rule="evenodd" clip-rule="evenodd" d="M9.93186 13.3038C9.03434 13.2708 6.49075 12.9193 3.82687 10.2566C1.16361 7.59326 0.81271 5.05082 0.779053 4.15286C0.729191 2.78443 1.77754 1.45525 2.98857 0.936169C3.1344 0.87321 3.2941 0.84924 3.45199 0.86661C3.60988 0.883981 3.76055 0.942095 3.8892 1.03525C4.88644 1.76184 5.57454 2.86107 6.1654 3.72538C6.29541 3.91527 6.35099 4.14635 6.32157 4.37457C6.29214 4.6028 6.17976 4.81223 6.00584 4.96295L4.78983 5.86589C4.73108 5.90831 4.68973 5.9706 4.67345 6.0412C4.65717 6.1118 4.66708 6.1859 4.70133 6.24975C4.97682 6.75014 5.46671 7.49543 6.02766 8.05626C6.58923 8.61709 7.36957 9.13929 7.90497 9.44588C7.97209 9.48355 8.05111 9.49409 8.12576 9.47531C8.20042 9.45653 8.26505 9.40988 8.30635 9.34493L9.09791 8.14038C9.24344 7.94711 9.45812 7.81764 9.69699 7.77907C9.93586 7.74051 10.1804 7.79585 10.3794 7.9335C11.2563 8.54045 12.2797 9.21656 13.0289 10.1756C13.1297 10.3051 13.1937 10.4594 13.2145 10.6222C13.2352 10.7849 13.2118 10.9503 13.1467 11.101C12.625 12.318 11.3049 13.3543 9.93186 13.3038Z" fill="white"/>
</svg>
