<svg width="17" height="20" viewBox="0 0 17 20" fill="none" xmlns="http://www.w3.org/2000/svg">
<g clip-path="url(#clip0_590_1481)">
<path d="M2.7782 2.07756H0V0.219234H7.62872V2.07756H4.84949V7.87384H2.7782V2.07756Z" fill="white"/>
<path d="M12.7488 0.00325775C15.189 0.00325775 16.9985 1.80781 16.9985 4.04979C16.9985 6.29178 15.189 8.09633 12.7488 8.09633C10.3086 8.09633 8.49902 6.29178 8.49902 4.04979C8.49902 1.80781 10.3086 0.00325775 12.7488 0.00325775ZM12.7488 6.18216C13.169 6.18216 13.5798 6.0571 13.9293 5.82279C14.2787 5.58849 14.5511 5.25546 14.7119 4.86582C14.8727 4.47618 14.9148 4.04743 14.8328 3.63379C14.7508 3.22015 14.5484 2.8402 14.2513 2.54198C13.9541 2.24376 13.5755 2.04067 13.1633 1.9584C12.7511 1.87612 12.3239 1.91835 11.9356 2.07974C11.5473 2.24113 11.2155 2.51445 10.982 2.86511C10.7485 3.21578 10.6239 3.62805 10.6239 4.04979C10.6211 4.33045 10.6742 4.60883 10.7801 4.86862C10.8859 5.12841 11.0424 5.36437 11.2403 5.56269C11.4382 5.76101 11.6736 5.91767 11.9326 6.02351C12.1916 6.12936 12.4691 6.18224 12.7488 6.17906" fill="white"/>
<path d="M4.36386 15.515H7.63258V18.4674C7.38886 18.7633 7.10269 19.0212 6.78345 19.2327C6.03673 19.7379 5.15519 20.0047 4.25462 19.9979C1.81339 19.9979 0.00488281 18.1934 0.00488281 15.9524C0.00488281 13.7115 1.81339 11.9059 4.25462 11.9059C5.12885 11.895 5.98521 12.1546 6.7072 12.6494C7.01091 12.8558 7.28575 13.1021 7.52438 13.3816L6.27027 14.8035C6.10629 14.6168 5.9197 14.4515 5.71483 14.3113C5.29051 13.9998 4.7803 13.8281 4.25462 13.8201C3.69107 13.8201 3.15061 14.0447 2.75212 14.4446C2.35363 14.8445 2.12975 15.3869 2.12975 15.9524C2.12975 16.518 2.35363 17.0603 2.75212 17.4602C3.15061 17.8601 3.69107 18.0848 4.25462 18.0848C4.60153 18.0935 4.94543 18.0183 5.2573 17.8656C5.38242 17.8019 5.50264 17.729 5.61694 17.6474V17.0455H4.36386V15.515Z" fill="white"/>
<path d="M12.7488 11.908C15.19 11.908 16.9985 13.7125 16.9985 15.9545C16.9985 18.1965 15.19 20.001 12.7488 20.001C10.3075 20.001 8.49902 18.1955 8.49902 15.9545C8.49902 13.7135 10.3075 11.908 12.7488 11.908ZM12.7488 18.0869C13.169 18.0869 13.5798 17.9618 13.9293 17.7275C14.2787 17.4932 14.5511 17.1602 14.7119 16.7705C14.8727 16.3809 14.9148 15.9521 14.8328 15.5385C14.7508 15.1249 14.5484 14.7449 14.2513 14.4467C13.9541 14.1485 13.5755 13.9454 13.1633 13.8631C12.7511 13.7808 12.3239 13.8231 11.9356 13.9844C11.5473 14.1458 11.2155 14.4192 10.982 14.7698C10.7485 15.1205 10.6239 15.5328 10.6239 15.9545C10.6206 16.2354 10.6733 16.5142 10.7789 16.7744C10.8845 17.0347 11.0409 17.2711 11.2389 17.4697C11.4368 17.6684 11.6724 17.8253 11.9317 17.9313C12.191 18.0373 12.4688 18.0902 12.7488 18.0869Z" fill="white"/>
<path d="M17 9.68976H0V10.3102H17V9.68976Z" fill="white"/>
</g>
<defs>
<clipPath id="clip0_590_1481">
<rect width="17" height="20" fill="white"/>
</clipPath>
</defs>
</svg>
